<svg width="32" height="32" viewBox="0 0 32 32" fill="none" xmlns="http://www.w3.org/2000/svg">
<path d="M21.5868 2.66663H10.4134C5.56008 2.66663 2.66675 5.55996 2.66675 10.4133V21.5733C2.66675 26.44 5.56008 29.3333 10.4134 29.3333H21.5734C26.4268 29.3333 29.3201 26.44 29.3201 21.5866V10.4133C29.3334 5.55996 26.4401 2.66663 21.5868 2.66663ZM21.3334 17H17.0001V21.3333C17.0001 21.88 16.5467 22.3333 16.0001 22.3333C15.4534 22.3333 15.0001 21.88 15.0001 21.3333V17H10.6667C10.1201 17 9.66675 16.5466 9.66675 16C9.66675 15.4533 10.1201 15 10.6667 15H15.0001V10.6666C15.0001 10.12 15.4534 9.66663 16.0001 9.66663C16.5467 9.66663 17.0001 10.12 17.0001 10.6666V15H21.3334C21.8801 15 22.3334 15.4533 22.3334 16C22.3334 16.5466 21.8801 17 21.3334 17Z" fill="#2F3E46"/>
</svg>
