<svg width="23" height="23" viewBox="0 0 23 23" fill="none" xmlns="http://www.w3.org/2000/svg">
<path d="M15.8125 21.8021H7.1875C4.025 21.8021 3.59375 20.0771 3.59375 18.2084V9.79419C3.59375 9.40127 3.91958 9.07544 4.3125 9.07544C4.70542 9.07544 5.03125 9.40127 5.03125 9.79419V18.2084C5.03125 19.8759 5.31875 20.3646 7.1875 20.3646H15.8125C17.6812 20.3646 17.9687 19.8759 17.9687 18.2084V9.79419C17.9687 9.40127 18.2946 9.07544 18.6875 9.07544C19.0804 9.07544 19.4062 9.40127 19.4062 9.79419V18.2084C19.4062 20.0771 18.975 21.8021 15.8125 21.8021Z" fill="#5E5E5E"/>
<path d="M18.2084 10.302H4.79175C2.47258 10.302 1.198 9.02746 1.198 6.70829V4.79163C1.198 2.47246 2.47258 1.19788 4.79175 1.19788H18.2084C20.5276 1.19788 21.8022 2.47246 21.8022 4.79163V6.70829C21.8022 9.02746 20.5276 10.302 18.2084 10.302ZM4.79175 2.63538C3.27758 2.63538 2.6355 3.27746 2.6355 4.79163V6.70829C2.6355 8.22246 3.27758 8.86454 4.79175 8.86454H18.2084C19.7226 8.86454 20.3647 8.22246 20.3647 6.70829V4.79163C20.3647 3.27746 19.7226 2.63538 18.2084 2.63538H4.79175Z" fill="#5E5E5E"/>
<path d="M13.2442 14.1354H9.75586C9.36294 14.1354 9.03711 13.8095 9.03711 13.4166C9.03711 13.0237 9.36294 12.6979 9.75586 12.6979H13.2442C13.6371 12.6979 13.9629 13.0237 13.9629 13.4166C13.9629 13.8095 13.6371 14.1354 13.2442 14.1354Z" fill="#5E5E5E"/>
</svg>
