<svg width="364" height="364" viewBox="0 0 364 364" fill="none" xmlns="http://www.w3.org/2000/svg">
<path d="M199.062 47.3958C199.062 57.5196 189.128 68.7505 184.421 73.5034C184.106 73.8273 183.73 74.0848 183.314 74.2606C182.898 74.4365 182.451 74.5271 182 74.5271C181.548 74.5271 181.102 74.4365 180.686 74.2606C180.27 74.0848 179.893 73.8273 179.579 73.5034C174.87 68.7505 164.937 57.5215 164.937 47.3958C164.937 42.8706 166.735 38.5307 169.935 35.3308C173.135 32.131 177.475 30.3333 182 30.3333C186.525 30.3333 190.865 32.131 194.065 35.3308C197.265 38.5307 199.062 42.8706 199.062 47.3958ZM164.937 316.604C164.937 306.479 174.872 295.25 179.579 290.497C179.893 290.173 180.27 289.915 180.685 289.739C181.101 289.563 181.548 289.472 182 289.472C182.451 289.472 182.898 289.563 183.314 289.739C183.73 289.915 184.106 290.173 184.421 290.497C189.13 295.25 199.062 306.479 199.062 316.604C199.062 321.129 197.265 325.469 194.065 328.669C190.865 331.869 186.525 333.667 182 333.667C177.475 333.667 173.135 331.869 169.935 328.669C166.735 325.469 164.937 321.129 164.937 316.604ZM316.604 199.063C306.478 199.063 295.249 189.128 290.497 184.421C290.172 184.107 289.915 183.73 289.739 183.314C289.563 182.899 289.472 182.452 289.472 182C289.472 181.548 289.563 181.101 289.739 180.686C289.915 180.27 290.172 179.893 290.497 179.579C295.249 174.87 306.478 164.938 316.604 164.938C321.129 164.938 325.469 166.735 328.669 169.935C331.869 173.135 333.667 177.475 333.667 182C333.667 186.525 331.869 190.865 328.669 194.065C325.469 197.265 321.129 199.063 316.604 199.063ZM47.3958 164.938C57.5195 164.938 68.7504 174.872 73.5033 179.579C73.8272 179.894 74.0847 180.27 74.2605 180.686C74.4364 181.102 74.527 181.549 74.527 182C74.527 182.452 74.4364 182.898 74.2605 183.314C74.0847 183.73 73.8272 184.106 73.5033 184.421C68.7504 189.13 57.5214 199.063 47.3958 199.063C42.8705 199.063 38.5306 197.265 35.3307 194.065C32.1309 190.865 30.3333 186.525 30.3333 182C30.3333 177.475 32.1309 173.135 35.3307 169.935C38.5306 166.735 42.8705 164.938 47.3958 164.938ZM289.245 98.8867C282.085 106.045 267.121 106.963 260.431 106.995C259.979 107.002 259.531 106.918 259.112 106.748C258.693 106.578 258.313 106.326 257.994 106.006C257.675 105.687 257.423 105.307 257.253 104.888C257.084 104.469 257 104.021 257.007 103.569C257.039 96.8771 257.955 81.9152 265.115 74.7546C268.315 71.5548 272.655 69.7571 277.18 69.7571C281.706 69.7571 286.045 71.5548 289.245 74.7546C292.445 77.9545 294.243 82.2944 294.243 86.8197C294.243 91.345 292.445 95.6868 289.245 98.8867ZM74.7545 265.115C81.9151 257.955 96.8789 257.039 103.571 257.007C104.022 257 104.47 257.085 104.889 257.254C105.307 257.424 105.687 257.676 106.006 257.995C106.325 258.315 106.577 258.695 106.746 259.113C106.916 259.531 107 259.979 106.993 260.431C106.961 267.121 106.045 282.085 98.8847 289.245C95.6848 292.445 91.3449 294.243 86.8196 294.243C82.2943 294.243 77.9544 292.445 74.7545 289.245C71.5547 286.046 69.757 281.706 69.757 277.18C69.757 272.655 71.5547 268.315 74.7545 265.115ZM265.115 289.245C257.955 282.085 257.039 267.121 257.007 260.431C257 259.979 257.084 259.531 257.254 259.113C257.423 258.694 257.675 258.314 257.995 257.995C258.314 257.676 258.694 257.424 259.112 257.254C259.531 257.084 259.979 257 260.431 257.007C267.121 257.039 282.085 257.955 289.245 265.115C292.445 268.315 294.242 272.655 294.242 277.18C294.242 281.705 292.445 286.045 289.245 289.245C286.045 292.445 281.705 294.242 277.18 294.242C272.655 294.242 268.315 292.445 265.115 289.245ZM98.8866 74.7546C106.045 81.9152 106.963 96.879 106.995 103.571C107.001 104.023 106.917 104.471 106.747 104.889C106.577 105.308 106.325 105.687 106.006 106.007C105.686 106.326 105.306 106.577 104.888 106.747C104.469 106.916 104.021 107 103.569 106.993C96.877 106.961 81.9151 106.045 74.7545 98.8848C71.5552 95.685 69.7579 91.3455 69.7579 86.8206C69.7579 82.2958 71.5552 77.9563 74.7545 74.7565C76.3389 73.1721 78.2199 71.9153 80.29 71.0578C82.3601 70.2003 84.5789 69.7589 86.8196 69.7589C89.0603 69.7589 91.2791 70.2003 93.3492 71.0578C95.4193 71.9153 97.3003 73.1721 98.8847 74.7565L98.8866 74.7546Z" fill="#57CC99"/>
<path d="M141.667 182L172 212.333L232.667 151.667" stroke="#38A3A5" stroke-width="50" stroke-linecap="round" stroke-linejoin="round"/>
</svg>
