<svg width="559" height="149" viewBox="0 0 559 149" fill="none" xmlns="http://www.w3.org/2000/svg">
<path d="M67.3063 18.3876C67.3063 22.6079 63.3435 27.2897 61.4657 29.271C61.3403 29.4061 61.1901 29.5134 61.0243 29.5867C60.8584 29.66 60.6801 29.6978 60.5 29.6978C60.3199 29.6978 60.1416 29.66 59.9757 29.5867C59.8099 29.5134 59.6597 29.4061 59.5343 29.271C57.6557 27.2897 53.6938 22.6087 53.6938 18.3876C53.6938 16.5012 54.4108 14.692 55.6873 13.3581C56.9637 12.0242 58.6949 11.2748 60.5 11.2748C62.3051 11.2748 64.0363 12.0242 65.3127 13.3581C66.5892 14.692 67.3063 16.5012 67.3063 18.3876ZM53.6938 130.612C53.6938 126.391 57.6565 121.71 59.5343 119.729C59.6597 119.594 59.8098 119.486 59.9757 119.413C60.1416 119.34 60.3199 119.302 60.5 119.302C60.6801 119.302 60.8584 119.34 61.0243 119.413C61.1902 119.486 61.3403 119.594 61.4657 119.729C63.3443 121.71 67.3063 126.391 67.3063 130.612C67.3063 132.499 66.5892 134.308 65.3127 135.642C64.0363 136.976 62.3051 137.725 60.5 137.725C58.6949 137.725 56.9637 136.976 55.6873 135.642C54.4108 134.308 53.6938 132.499 53.6938 130.612ZM114.194 81.6128C110.155 81.6128 105.675 77.4716 103.779 75.5092C103.65 75.3782 103.547 75.2213 103.477 75.0479C103.407 74.8746 103.371 74.6882 103.371 74.5C103.371 74.3118 103.407 74.1254 103.477 73.9521C103.547 73.7787 103.65 73.6218 103.779 73.4908C105.675 71.5276 110.155 67.3872 114.194 67.3872C115.999 67.3872 117.73 68.1366 119.007 69.4705C120.283 70.8044 121 72.6136 121 74.5C121 76.3864 120.283 78.1956 119.007 79.5295C117.73 80.8635 115.999 81.6128 114.194 81.6128ZM6.80625 67.3872C10.8446 67.3872 15.3247 71.5284 17.2206 73.4908C17.3498 73.6219 17.4525 73.7788 17.5226 73.9521C17.5928 74.1255 17.6289 74.3118 17.6289 74.5C17.6289 74.6882 17.5928 74.8745 17.5226 75.0479C17.4525 75.2212 17.3498 75.3781 17.2206 75.5092C15.3247 77.4724 10.8454 81.6128 6.80625 81.6128C5.00112 81.6128 3.26992 80.8635 1.99351 79.5295C0.717086 78.1956 0 76.3864 0 74.5C0 72.6136 0.717086 70.8044 1.99351 69.4705C3.26992 68.1366 5.00112 67.3872 6.80625 67.3872ZM103.28 39.8526C100.424 42.8368 94.4549 43.2193 91.7861 43.2328C91.6059 43.2355 91.4271 43.2005 91.2601 43.1297C91.0932 43.0589 90.9415 42.9538 90.8141 42.8206C90.6868 42.6874 90.5863 42.5289 90.5186 42.3544C90.451 42.1799 90.4175 41.9929 90.4203 41.8047C90.4331 39.0148 90.7984 32.7777 93.6548 29.7927C94.9312 28.4587 96.6624 27.7093 98.4675 27.7093C100.273 27.7093 102.004 28.4587 103.28 29.7927C104.557 31.1266 105.274 32.9358 105.274 34.8222C105.274 36.7087 104.557 38.5187 103.28 39.8526ZM17.7197 109.148C20.5761 106.163 26.5451 105.781 29.2147 105.768C29.3947 105.765 29.5734 105.8 29.7402 105.871C29.9071 105.942 30.0586 106.047 30.1859 106.18C30.3131 106.313 30.4136 106.472 30.4812 106.646C30.5489 106.82 30.5824 107.007 30.5797 107.195C30.5669 109.984 30.2016 116.222 27.3452 119.207C26.0688 120.541 24.3376 121.291 22.5325 121.291C20.7273 121.291 18.9961 120.541 17.7197 119.207C16.4433 117.873 15.7262 116.064 15.7262 114.178C15.7262 112.291 16.4433 110.482 17.7197 109.148ZM93.6548 119.207C90.7984 116.222 90.4331 109.984 90.4203 107.195C90.4176 107.007 90.4511 106.82 90.5188 106.646C90.5865 106.471 90.687 106.313 90.8144 106.18C90.9418 106.047 91.0934 105.942 91.2603 105.871C91.4272 105.8 91.606 105.765 91.7861 105.768C94.4549 105.781 100.424 106.163 103.28 109.148C104.557 110.482 105.274 112.291 105.274 114.178C105.274 116.064 104.557 117.873 103.28 119.207C102.004 120.541 100.273 121.29 98.4675 121.29C96.6625 121.29 94.9313 120.541 93.6548 119.207ZM27.346 29.7927C30.2016 32.7777 30.5676 39.0156 30.5805 41.8054C30.583 41.9937 30.5494 42.1805 30.4816 42.3549C30.4138 42.5292 30.3132 42.6876 30.1858 42.8207C30.0584 42.9537 29.9067 43.0586 29.7398 43.1293C29.5728 43.1999 29.394 43.2348 29.2139 43.232C26.5444 43.2185 20.5761 42.8368 17.7197 39.8518C16.4435 38.5179 15.7265 36.7089 15.7265 34.8226C15.7265 32.9364 16.4435 31.1273 17.7197 29.7934C18.3517 29.1329 19.102 28.609 19.9278 28.2516C20.7536 27.8941 21.6387 27.7101 22.5325 27.7101C23.4263 27.7101 24.3114 27.8941 25.1371 28.2516C25.9629 28.609 26.7132 29.1329 27.3452 29.7934L27.346 29.7927Z" fill="#57CC99"/>
<path d="M44.4111 74.5L56.5111 87.1451L80.7111 61.855" stroke="#38A3A5" stroke-width="20" stroke-linecap="round" stroke-linejoin="round"/>
<path d="M168.579 56V38.64H182.839V56H197.347V68.276H182.839V95.804C182.839 99.524 183.541 102.128 184.947 103.616C186.352 105.021 188.171 105.807 190.403 105.972C192.717 106.055 195.032 105.931 197.347 105.6V117.504C193.792 118.248 190.279 118.455 186.807 118.124C183.417 117.876 180.359 116.967 177.631 115.396C174.903 113.743 172.712 111.345 171.059 108.204C169.405 105.063 168.579 100.929 168.579 95.804V68.276H159.899V56H168.579ZM237.067 118.868C231.115 118.868 225.783 117.587 221.071 115.024C216.359 112.379 212.681 108.7 210.035 103.988C207.39 99.1933 206.067 93.572 206.067 87.124C206.067 80.5933 207.431 74.9307 210.159 70.136C212.887 65.3413 216.649 61.6627 221.443 59.1C226.238 56.4547 231.57 55.132 237.439 55.132C243.391 55.132 248.723 56.4547 253.435 59.1C258.23 61.6627 262.033 65.3413 264.843 70.136C267.654 74.848 269.059 80.428 269.059 86.876C269.059 93.4067 267.613 99.0693 264.719 103.864C261.909 108.659 258.065 112.379 253.187 115.024C248.393 117.587 243.019 118.868 237.067 118.868ZM236.943 106.344C239.837 106.344 242.565 105.641 245.127 104.236C247.773 102.831 249.922 100.723 251.575 97.912C253.229 95.0187 254.055 91.34 254.055 86.876C254.055 82.5773 253.27 79.0227 251.699 76.212C250.129 73.3187 248.062 71.1693 245.499 69.764C242.937 68.3587 240.167 67.656 237.191 67.656C234.298 67.656 231.611 68.3587 229.131 69.764C226.734 71.1693 224.791 73.3187 223.303 76.212C221.815 79.0227 221.071 82.66 221.071 87.124C221.071 91.4227 221.774 95.0187 223.179 97.912C224.667 100.723 226.61 102.831 229.007 104.236C231.405 105.641 234.05 106.344 236.943 106.344ZM327.825 65.176L326.213 65.548V28.72H340.225V118H327.577L326.585 110.312C324.435 112.709 321.707 114.735 318.401 116.388C315.094 118.041 311.167 118.868 306.621 118.868C301.082 118.868 296.205 117.545 291.989 114.9C287.855 112.255 284.631 108.535 282.317 103.74C280.002 98.9453 278.845 93.3653 278.845 87C278.845 80.6347 280.002 75.0547 282.317 70.26C284.631 65.4653 287.855 61.7453 291.989 59.1C296.205 56.4547 301.082 55.132 306.621 55.132C311.498 55.132 315.755 56.124 319.393 58.108C323.03 60.0093 325.841 62.3653 327.825 65.176ZM293.849 87C293.849 92.704 295.337 97.3333 298.313 100.888C301.289 104.443 305.174 106.22 309.969 106.22C312.862 106.22 315.507 105.476 317.905 103.988C320.385 102.5 322.369 100.351 323.857 97.54C325.427 94.6467 326.213 91.1333 326.213 87C326.213 82.8667 325.427 79.3947 323.857 76.584C322.369 73.6907 320.385 71.5 317.905 70.012C315.507 68.524 312.862 67.78 309.969 67.78C305.174 67.78 301.289 69.5573 298.313 73.112C295.337 76.6667 293.849 81.296 293.849 87ZM384.317 118.868C378.365 118.868 373.033 117.587 368.321 115.024C363.609 112.379 359.931 108.7 357.285 103.988C354.64 99.1933 353.317 93.572 353.317 87.124C353.317 80.5933 354.681 74.9307 357.409 70.136C360.137 65.3413 363.899 61.6627 368.693 59.1C373.488 56.4547 378.82 55.132 384.689 55.132C390.641 55.132 395.973 56.4547 400.685 59.1C405.48 61.6627 409.283 65.3413 412.093 70.136C414.904 74.848 416.309 80.428 416.309 86.876C416.309 93.4067 414.863 99.0693 411.969 103.864C409.159 108.659 405.315 112.379 400.437 115.024C395.643 117.587 390.269 118.868 384.317 118.868ZM384.193 106.344C387.087 106.344 389.815 105.641 392.377 104.236C395.023 102.831 397.172 100.723 398.825 97.912C400.479 95.0187 401.305 91.34 401.305 86.876C401.305 82.5773 400.52 79.0227 398.949 76.212C397.379 73.3187 395.312 71.1693 392.749 69.764C390.187 68.3587 387.417 67.656 384.441 67.656C381.548 67.656 378.861 68.3587 376.381 69.764C373.984 71.1693 372.041 73.3187 370.553 76.212C369.065 79.0227 368.321 82.66 368.321 87.124C368.321 91.4227 369.024 95.0187 370.429 97.912C371.917 100.723 373.86 102.831 376.257 104.236C378.655 105.641 381.3 106.344 384.193 106.344ZM434.833 118.868C432.188 118.868 429.956 118 428.137 116.264C426.401 114.445 425.533 112.213 425.533 109.568C425.533 107.005 426.401 104.856 428.137 103.12C429.956 101.301 432.188 100.392 434.833 100.392C437.396 100.392 439.586 101.301 441.405 103.12C443.224 104.856 444.133 107.005 444.133 109.568C444.133 112.213 443.224 114.445 441.405 116.264C439.586 118 437.396 118.868 434.833 118.868ZM462.084 49.676C462.084 44.6333 462.91 40.5 464.564 37.276C466.3 33.9693 468.945 31.572 472.5 30.084C476.137 28.596 480.808 28.1413 486.512 28.72V40.872C482.626 40.4587 479.898 41.0373 478.328 42.608C476.84 44.096 476.096 46.4933 476.096 49.8V56H487.256V68.276H476.096V118H462.084V68.276H454.52V56H462.084V49.676ZM541.843 56H556.599L520.143 142.8H506.255L517.415 116.264L493.235 56H508.735L525.103 99.896L541.843 56Z" fill="#2F3E46"/>
</svg>
