<svg width="24" height="24" viewBox="0 0 24 24" fill="none" xmlns="http://www.w3.org/2000/svg">
<path d="M19.8301 15.3L15.3001 19.83C13.4401 21.69 10.4201 21.69 8.55011 19.83L4.16011 15.44C2.30011 13.58 2.30011 10.56 4.16011 8.69005L8.70011 4.17005C9.65011 3.22005 10.9601 2.71005 12.3001 2.78005L17.3001 3.02005C19.3001 3.11005 20.8901 4.70005 20.9901 6.69005L21.2301 11.69C21.2901 13.04 20.7801 14.35 19.8301 15.3Z" stroke="#5E5E5E" stroke-width="1.5" stroke-linecap="round" stroke-linejoin="round"/>
<path d="M14.5 12C13.1193 12 12 10.8807 12 9.5C12 8.11929 13.1193 7 14.5 7C15.8807 7 17 8.11929 17 9.5C17 10.8807 15.8807 12 14.5 12Z" stroke="#5E5E5E" stroke-width="1.5" stroke-linecap="round"/>
</svg>
